<svg xmlns="http://www.w3.org/2000/svg" xmlns:xlink="http://www.w3.org/1999/xlink" version="1.1" width="512" height="512" enable-background="new 0 0 512 512" xml:space="preserve" style=""><rect id="backgroundrect" width="100%" height="100%" x="0" y="0" fill="none" stroke="none"/>

<g class="currentLayer" style=""><title>Layer 1</title><path d="M256.88495576381683,64 c-70.688,0 -128,57.313 -128,128 c0,64 64,129 64,192 h128 c0,-65 64,-128 64,-192 C384.88495576381683,121.313 327.5729557638168,64 256.88495576381683,64 zM324.4789557638168,272.906 c-12.75,25.344 -25.781,51.344 -31.938,79.094 h-71.469 c-6.156,-26.906 -18.906,-52.5 -31.375,-77.5 C174.88495576381683,244.719 160.88495576381683,216.594 160.88495576381683,192 c0,-52.938 43.063,-96 96,-96 s96,43.063 96,96 C352.88495576381683,216.313 339.0729557638168,243.813 324.4789557638168,272.906 zM320.88495576381683,464 c0,8.844 -7.156,16 -16,16 h-2.938 c-6.594,18.625 -24.188,32 -45.063,32 s-38.469,-13.375 -45.063,-32 H208.88495576381683 c-8.844,0 -16,-7.156 -16,-16 s7.156,-16 16,-16 h96 C313.7289557638168,448 320.88495576381683,455.156 320.88495576381683,464 zM320.88495576381683,416 c0,8.844 -7.156,16 -16,16 h-96 c-8.844,0 -16,-7.156 -16,-16 s7.156,-16 16,-16 h96 C313.7289557638168,400 320.88495576381683,407.156 320.88495576381683,416 zM98.60395576381683,82.125 l28.813,16.656 c-6.25,8.656 -11.656,17.844 -16.094,27.656 l-28.719,-16.563 L98.60395576381683,82.125 zM256.88495576381683,32 c-5.5,0 -10.656,1.063 -16,1.625 V0 h32 v33.625 C267.54095576381684,33.063 262.38495576381683,32 256.88495576381683,32 zM163.66595576381684,62.531 l-16.656,-28.813 l27.75,-16 l16.563,28.719 C181.50995576381683,50.875 172.32295576381682,56.281 163.66595576381684,62.531 zM402.4789557638168,126.438 c-4.438,-9.813 -9.875,-19 -16.125,-27.656 l28.813,-16.656 l16,27.75 L402.4789557638168,126.438 zM350.1039557638168,62.5 c-8.625,-6.219 -17.844,-11.625 -27.625,-16.063 l16.563,-28.719 l27.688,16 L350.1039557638168,62.5 zM98.57295576381684,208 H64.88495576381683 v-32 h33.625 C97.94795576381684,181.344 96.88495576381683,186.5 96.88495576381683,192 C96.88495576381683,197.438 97.94795576381684,202.688 98.57295576381684,208 zM448.88495576381683,176 v32 h-33.688 c0.6250000000000001,-5.313 1.6880000000000002,-10.563 1.6880000000000002,-16 c0,-5.5 -1.063,-10.656 -1.625,-16 H448.88495576381683 zM402.1039557638168,257.375 l29.063,16.75 l-16,27.719 l-26.188,-15.125 C393.6979557638168,277.063 398.0729557638168,267.313 402.1039557638168,257.375 zM111.54095576381684,257.438 c3.9690000000000003,9.938 8.344,19.75 13.031,29.438 l-25.969,14.969 l-16,-27.719 L111.54095576381684,257.438 z" id="svg_1" class="selected" fill="#009900" fill-opacity="1" filter="url(#f094)"/></g><defs><filter id="f094" xmlns:inkscape="http://www.inkscape.org/namespaces/inkscape" inkscape:label="Glow" inkscape:menu="Shadows and Glows" inkscape:menu-tooltip="Glow of object's own color at the edges" color-interpolation-filters="sRGB">
            <feGaussianBlur stdDeviation="5" result="result91"/>
            <feComposite in="SourceGraphic" operator="over" in2="result91"/>
        </filter></defs></svg>