<?xml version="1.0" encoding="utf-8"?>
<!-- Svg Vector Icons : http://www.onlinewebfonts.com/icon -->
<!DOCTYPE svg PUBLIC "-//W3C//DTD SVG 1.1//EN" "http://www.w3.org/Graphics/SVG/1.1/DTD/svg11.dtd">
<svg version="1.1" xmlns="http://www.w3.org/2000/svg" xmlns:xlink="http://www.w3.org/1999/xlink" x="0px" y="0px" viewBox="0 0 1000 1000" enable-background="new 0 0 1000 1000" xml:space="preserve">
<metadata> Svg Vector Icons : http://www.onlinewebfonts.com/icon </metadata>
<g><path d="M500.3,990c65.9,0,122.6-38.6,149.2-94.4H351.1C377.6,951.2,434.3,990,500.3,990L500.3,990z"/><path d="M901.6,753.8h-0.4c-40.6-11.4-70.4-48.3-70.4-92.4c0-0.7,0.2-1.4,0.2-2h-0.2V399.6h-0.6C824.6,236,704.5,101.9,547.4,74.5v-5.4c0-32.6-26.5-59.1-59.1-59.1c-32.6,0-59.1,26.5-59.1,59.1v5.4C272.2,101.9,152,236,146.4,399.6h-0.6v259.7h-0.3c0.1,1.8,0.5,3.5,0.5,5.4c0,40.4-24.2,75.2-59,90.6C66.6,760.6,51.3,779,51.3,801c0,26,21.2,47.2,47.2,47.2h802.9c26,0,47.2-21.2,47.2-47.2C948.9,775,927.7,753.8,901.6,753.8L901.6,753.8z"/></g>
</svg>